<svg xmlns="http://www.w3.org/2000/svg" xmlns:xlink="http://www.w3.org/1999/xlink" width="12" height="9" version="1.1" viewBox="0 0 12 9"><title>Group</title><desc>Created with Sketch.</desc><g id="一键折叠" fill="none" fill-rule="evenodd" stroke="none" stroke-width="1"><g id="icon_Collapse-All-Groups" transform="translate(-2.000000, -4.000000)"><g id="Group" transform="translate(2.000000, 4.000000)"><path id="Path-19" stroke="#000" stroke-opacity=".9" d="M6,1 L12,1"/><path id="Path-19-Copy-2" stroke="#000" stroke-opacity=".9" d="M6,4.5 L12,4.5"/><path id="Path-19-Copy-3" stroke="#000" stroke-opacity=".9" d="M0,8 L12,8"/><path id="Path" fill="#000" fill-rule="nonzero" d="M4,4.5 C4,4.584 3.9752,4.657 3.9256,4.72 C3.876,4.782 3.8168,4.812 3.7504,4.812 L0.2496,4.812 C0.1824,4.812 0.1232,4.782 0.0736,4.719 C0.024,4.657 0,4.583 0,4.5 C0,4.417 0.024,4.343 0.0744,4.28 L1.824,2.093 C1.8736,2.031 1.9328,2 2,2 C2.0672,2 2.1256,2.031 2.176,2.094 L3.9264,4.281 C3.9752,4.342 4,4.416 4,4.5 Z"/></g></g></g></svg>