<svg xmlns="http://www.w3.org/2000/svg" xmlns:xlink="http://www.w3.org/1999/xlink" width="11" height="12" version="1.1" viewBox="0 0 11 12"><title>Group</title><desc>Created with Sketch.</desc><g id="图标" fill="none" fill-rule="evenodd" stroke="none" stroke-width="1"><g id="文件---png" transform="translate(-2.000000, -2.000000)"><g id="文件夹"><g id="Group" transform="translate(3.000000, 2.000000)"><path id="Rectangle" stroke="#000" d="M9.5,0.5 L0.6,0.5 C0.544771525,0.5 0.5,0.544771525 0.5,0.6 L0.5,11.4 C0.5,11.4552285 0.544771525,11.5 0.6,11.5 L9.4,11.5 C9.45522847,11.5 9.5,11.4552285 9.5,11.4 L9.5,0.5 Z"/><path id="Path-4" stroke="#000" d="M0.391863519,8.50057728 L2.96977436,5.42558575 L2.96977436,5.42558575 C3.07621883,5.29861632 3.26543818,5.28197756 3.3924076,5.38842204 C3.4091972,5.40249755 3.42439438,5.41836992 3.43772722,5.43575514 L5.61065906,8.269129 L5.61065906,8.269129 C5.70948672,8.39799439 5.89291389,8.42482317 6.02450881,8.3296603 L7.71615822,7.10634389 L7.71615822,7.10634389 C7.83150492,7.02293092 7.98958883,7.03206074 8.09456596,7.1281981 L9.59313462,8.50057728"/><circle id="Oval-4" cx="7" cy="3" r="1" fill="#000"/></g></g></g></g></svg>