<svg xmlns="http://www.w3.org/2000/svg" xmlns:xlink="http://www.w3.org/1999/xlink" width="16" height="12" version="1.1" viewBox="0 0 16 12"><title>Group</title><desc>Created with Sketch.</desc><g id="Symbols" fill="none" fill-rule="evenodd" stroke="none" stroke-width="1"><g id="git/m" transform="translate(-2.000000, -2.000000)"><g id="Group"><g transform="translate(2.000000, 2.000000)"><path id="Rectangle-3" fill="#2C9F67" d="M2,-1.998415e-15 L14,-1.998415e-15 L14,-1.99840144e-15 C15.1045695,-2.20130988e-15 16,0.8954305 16,2 L16,10 L16,10 C16,11.1045695 15.1045695,12 14,12 L2,12 L2,12 C0.8954305,12 1.3527075e-16,11.1045695 0,10 L0,2 L0,2 C-1.3527075e-16,0.8954305 0.8954305,-1.3514038e-15 2,-1.55431223e-15 Z"/><polygon id="M" fill="#FFF" points="3.77 1.99 3.77 9.99 5.057 10 5.057 4.588 5.101 4.588 7.411 10 8.522 10 10.832 4.588 10.876 4.588 10.876 10 12.163 10 12.163 1.99 10.656 1.99 7.994 8.306 7.95 8.306 5.277 1.99"/></g></g></g></g></svg>