<svg xmlns="http://www.w3.org/2000/svg" xmlns:xlink="http://www.w3.org/1999/xlink" width="16" height="16" version="1.1" viewBox="0 0 16 16"><title>cloud</title><desc>Created with Sketch.</desc><g id="cloud" fill="none" fill-rule="evenodd" stroke="none" stroke-width="1"><g id="Group-2" stroke="#000" stroke-linecap="round" stroke-linejoin="round" stroke-width=".933" transform="translate(1.000000, 3.000000)"><g id="Group"><g id="Shape"><path d="M11.030303,8.34166667 C12.6424242,8.34166667 13.9575758,7.01555556 13.9575758,5.39 C13.9575758,3.76444444 12.6424242,2.43833333 11.030303,2.43833333 C10.8606061,2.43833333 10.7333333,2.43833333 10.5636364,2.48111111 C9.88484848,1.11222222 8.52727273,0.171111111 6.91515152,0.171111111 C5.00606061,0.171111111 3.39393939,1.49722222 2.96969697,3.29388889 C2.92727273,3.29388889 2.88484848,3.29388889 2.88484848,3.29388889 C1.48484848,3.29388889 0.381818182,4.44888889 0.381818182,5.81777778 C0.381818182,7.18666667 1.52727273,8.34166667 2.88484848,8.34166667"/><path d="M8.78181818,3.42222222 C9.33333333,2.78055556 10.0969697,2.39555556 10.9878788,2.39555556 C12.6,2.39555556 13.9151515,3.72166667 13.9151515,5.34722222 C13.9151515,6.97277778 12.6,8.29888889 10.9878788,8.29888889"/></g></g></g><g id="Group-7" fill="#000" fill-rule="nonzero" transform="translate(9.000000, 10.000000) scale(1, -1) translate(-9.000000, -10.000000) translate(7.000000, 7.000000)"><g id="Group-4"><path id="Shape" d="M0,0.5 C0,0.223857625 0.223857625,0 0.5,0 C0.776142375,0 1,0.223857625 1,0.5 L1,5 C1,5.27614237 0.776142375,5.5 0.5,5.5 C0.223857625,5.5 0,5.27614237 0,5 L0,0.5 Z"/><path id="Shape" d="M2.7,0.5 C2.7,0.223857625 2.92385763,0 3.2,0 C3.47614237,0 3.7,0.223857625 3.7,0.5 L3.7,0.921052632 C3.7,1.75573121 3.2422476,2.4314292 2.31660536,2.63974631 L1.68025306,2.8397695 C1.29940482,2.95684611 1,3.32413658 1,3.65789474 L1,4.5 C1,4.77614237 0.776142375,5 0.5,5 C0.223857625,5 0,4.77614237 0,4.5 L0,3.65789474 C0,2.86447262 0.603007857,2.12474159 1.38339464,1.88485323 L2.05603456,1.67515049 C2.53071686,1.56745083 2.7,1.31756841 2.7,0.921052632 L2.7,0.5 Z" transform="translate(1.850000, 2.500000) scale(1, -1) translate(-1.850000, -2.500000)"/></g></g></g></svg>