<svg xmlns="http://www.w3.org/2000/svg" xmlns:xlink="http://www.w3.org/1999/xlink" width="16" height="16" version="1.1" viewBox="0 0 16 16"><title>icon_shortcut</title><desc>Created with Sketch.</desc><g id="icon_shortcut" fill="none" fill-rule="evenodd" stroke="none" stroke-width="1"><g id="Group-11"><g id="Group-8"><path id="Combined-Shape" fill="#000" fill-rule="nonzero" d="M4.53333333,12.3333333 L5.33333333,12.3333333 C5.33333333,13.2538079 4.58714125,14 3.66666667,14 C2.74619208,14 2,13.2538079 2,12.3333333 C2,11.4128588 2.74619208,10.6666667 3.66666667,10.6666667 L3.66666667,11.4666667 C3.18801988,11.4666667 2.8,11.8546866 2.8,12.3333333 C2.8,12.8119801 3.18801988,13.2 3.66666667,13.2 C4.14531345,13.2 4.53333333,12.8119801 4.53333333,12.3333333 Z M12.3333333,11.4666667 L12.3333333,10.6666667 C13.2538079,10.6666667 14,11.4128588 14,12.3333333 C14,13.2538079 13.2538079,14 12.3333333,14 C11.4128588,14 10.6666667,13.2538079 10.6666667,12.3333333 L11.4666667,12.3333333 C11.4666667,12.8119801 11.8546866,13.2 12.3333333,13.2 C12.8119801,13.2 13.2,12.8119801 13.2,12.3333333 C13.2,11.8546866 12.8119801,11.4666667 12.3333333,11.4666667 Z M4.53333333,3.66666667 C4.53333333,3.18801988 4.14531345,2.8 3.66666667,2.8 C3.18801988,2.8 2.8,3.18801988 2.8,3.66666667 C2.8,4.14531345 3.18801988,4.53333333 3.66666667,4.53333333 L3.66666667,5.33333333 C2.74619208,5.33333333 2,4.58714125 2,3.66666667 C2,2.74619208 2.74619208,2 3.66666667,2 C4.58714125,2 5.33333333,2.74619208 5.33333333,3.66666667 L4.53333333,3.66666667 Z M11.4666667,3.66666667 L10.6666667,3.66666667 C10.6666667,2.74619208 11.4128588,2 12.3333333,2 C13.2538079,2 14,2.74619208 14,3.66666667 C14,4.58714125 13.2538079,5.33333333 12.3333333,5.33333333 L12.3333333,4.53333333 C12.8119801,4.53333333 13.2,4.14531345 13.2,3.66666667 C13.2,3.18801988 12.8119801,2.8 12.3333333,2.8 C11.8546866,2.8 11.4666667,3.18801988 11.4666667,3.66666667 Z"/></g><path id="Rectangle" fill="#000" fill-rule="nonzero" d="M11.9333333,4.53333333 L12.3333333,4.53333333 L12.3333333,5.33333333 L3.66666667,5.33333333 L3.66666667,4.53333333 L4.46666667,4.53333333 L3.66666667,4.53333333 L3.66666667,5.33333333 L4.46666667,5.33333333 L3.66666667,5.33333333 L3.66666667,4.53333333 L12.3333333,4.53333333 L12.3333333,5.33333333 L11.5333333,5.33333333 L12.3333333,5.33333333 L12.3333333,4.53333333 L11.9333333,4.53333333 Z M11.9333333,4.53333333 L11.5333333,4.53333333 L11.9333333,4.53333333 Z M3.66666667,4.53333333 L12.3333333,4.53333333 L12.3333333,5.33333333 L3.66666667,5.33333333 L3.66666667,4.53333333 Z"/><path id="Rectangle" fill="#000" fill-rule="nonzero" d="M11.9333333,10.6666667 L12.3333333,10.6666667 L12.3333333,11.4666667 L3.66666667,11.4666667 L3.66666667,10.6666667 L4.46666667,10.6666667 L3.66666667,10.6666667 L3.66666667,11.4666667 L4.46666667,11.4666667 L3.66666667,11.4666667 L3.66666667,10.6666667 L12.3333333,10.6666667 L12.3333333,11.4666667 L11.5333333,11.4666667 L12.3333333,11.4666667 L12.3333333,10.6666667 L11.9333333,10.6666667 Z M11.9333333,10.6666667 L11.5333333,10.6666667 L11.9333333,10.6666667 Z M3.66666667,10.6666667 L12.3333333,10.6666667 L12.3333333,11.4666667 L3.66666667,11.4666667 L3.66666667,10.6666667 Z"/><rect id="Rectangle" width="1" height="8.667" x="4.533" y="3.667" fill="#000"/><rect id="Rectangle" width="1" height="8.667" x="10.667" y="3.667" fill="#000"/></g></g></svg>