<svg xmlns="http://www.w3.org/2000/svg" xmlns:xlink="http://www.w3.org/1999/xlink" width="45" height="15" version="1.1" viewBox="0 0 45 15"><title>menu_black@2x</title><desc>Created with Sketch.</desc><g id="模拟器" fill="none" fill-rule="evenodd" stroke="none" stroke-width="1"><g id="Desktop-HD-Copy-5" fill="#000" transform="translate(-1238.000000, -302.000000)"><g id="Nav" transform="translate(582.000000, 283.000000)"><path id="menu_black@2x" d="M666,27 C666,29.761 663.761,32 661,32 C658.239,32 656,29.761 656,27 C656,24.238 658.239,22 661,22 C663.761,22 666,24.238 666,27 Z M678.5,19 C682.6415,19 686,22.357 686,26.5 C686,30.6415 682.6415,34 678.5,34 C674.3585,34 671,30.6415 671,26.5 C671,22.357 674.3585,19 678.5,19 Z M696,22 C698.761,22 701,24.238 701,27 C701,29.761 698.761,32 696,32 C693.239,32 691,29.761 691,27 C691,24.238 693.239,22 696,22 Z"/></g></g></g></svg>