<svg xmlns="http://www.w3.org/2000/svg" xmlns:xlink="http://www.w3.org/1999/xlink" id="图层_1" width="16" height="16" x="0" y="0" enable-background="new 0 0 16 16" version="1.1" viewBox="0 0 16 16" xml:space="preserve"><path fill="#888" fill-rule="evenodd" d="M15,13l-2.881-2.881C12.674,9.209,13,8.144,13,7	c0-3.314-2.686-6-6-6S1,3.686,1,7s2.686,6,6,6c1.144,0,2.209-0.326,3.119-0.881L13,15L15,13z M3,7c0-2.209,1.791-4,4-4	c2.209,0,4,1.791,4,4c0,2.209-1.791,4-4,4C4.791,11,3,9.209,3,7z" clip-rule="evenodd"/></svg>